<svg width="82" height="64" viewBox="0 0 82 64" fill="none" xmlns="http://www.w3.org/2000/svg">
<path d="M78.9473 58.3438C77.4285 58.3438 76.416 57.3313 76.416 55.8125V22.9062C76.416 21.3875 77.4285 20.375 78.9473 20.375C80.466 20.375 81.4785 21.3875 81.4785 22.9062V55.8125C81.4785 57.3313 80.466 58.3438 78.9473 58.3438Z" fill="#DB7C26"/>
<path d="M40.9785 45.6891C40.4723 45.6891 40.2191 45.6891 39.7129 45.4359L1.74414 25.1859C0.984766 24.6797 0.478516 23.9203 0.478516 22.9078C0.478516 21.8953 0.984766 21.1359 1.74414 20.6297L39.7129 0.379687C40.4723 -0.126562 41.2316 -0.126562 41.991 0.379687L79.9598 20.6297C80.7191 21.1359 81.2254 21.8953 81.2254 22.9078C81.2254 23.9203 80.7191 24.6797 79.9598 25.1859L41.991 45.4359C41.7379 45.6891 41.4848 45.6891 40.9785 45.6891Z" fill="#DB7C26"/>
<path d="M44.5223 49.7383C43.5098 50.4977 42.2441 50.7508 40.9785 50.7508C39.7129 50.7508 38.4473 50.4977 37.4348 49.7383L15.666 38.3477V48.2195C15.666 56.0664 28.0691 63.407 40.9785 63.407C53.8879 63.407 66.291 56.0664 66.291 48.2195V38.3477L44.5223 49.7383Z" fill="#DB7C26"/>
</svg>
