<svg width="79" height="80" viewBox="0 0 79 80" fill="none" xmlns="http://www.w3.org/2000/svg">
<path d="M61.1309 22.5467C60.8574 22.5076 60.5838 22.5076 60.3103 22.5467C54.2536 22.3513 49.4473 17.3887 49.4473 11.2929C49.4473 5.07984 54.488 0 60.7401 0C66.9532 0 72.033 5.04076 72.033 11.2929C71.9939 17.3887 67.1876 22.3513 61.1309 22.5467Z" fill="#D8572A"/>
<path d="M73.8805 49.6276C69.504 52.5583 63.3692 53.6524 57.7032 52.91C59.1881 49.7058 59.9696 46.1499 60.0087 42.3986C60.0087 38.4911 59.149 34.7789 57.5078 31.5356C63.291 30.7541 69.4259 31.8482 73.8414 34.7789C80.0154 38.8427 80.0154 45.5247 73.8805 49.6276Z" fill="#D8572A"/>
<path d="M17.8005 22.5467C18.0741 22.5076 18.3476 22.5076 18.6211 22.5467C24.6779 22.3513 29.4842 17.3887 29.4842 11.2929C29.4842 5.04076 24.4434 0 18.1913 0C11.9783 0 6.9375 5.04076 6.9375 11.2929C6.9375 17.3887 11.7438 22.3513 17.8005 22.5467Z" fill="#D8572A"/>
<path d="M18.2345 42.3994C18.2345 46.1897 19.0551 49.7847 20.54 53.028C15.0303 53.6141 9.28618 52.4418 5.06601 49.6675C-1.10794 45.5645 -1.10794 38.8826 5.06601 34.7796C9.24711 31.9662 15.1475 30.8329 20.6963 31.4582C19.0942 34.7405 18.2345 38.4527 18.2345 42.3994Z" fill="#D8572A"/>
<path d="M39.9989 54.1965C39.6863 54.1575 39.3346 54.1575 38.9829 54.1965C31.793 53.9621 26.0488 48.0617 26.0488 40.7936C26.0879 33.3692 32.0666 27.3516 39.53 27.3516C46.9544 27.3516 52.972 33.3692 52.972 40.7936C52.933 48.0617 47.2279 53.9621 39.9989 54.1965Z" fill="#D8572A"/>
<path d="M27.2984 62.2882C21.3979 66.2349 21.3979 72.7215 27.2984 76.629C34.0195 81.1227 45.0388 81.1227 51.7598 76.629C57.6602 72.6824 57.6602 66.1958 51.7598 62.2882C45.0779 57.7945 34.0585 57.7945 27.2984 62.2882Z" fill="#D8572A"/>
</svg>
