<svg width="82" height="90" viewBox="0 0 82 90" fill="none" xmlns="http://www.w3.org/2000/svg">
<path d="M51.6366 77.8026C51.6366 78.9792 50.6816 79.9342 49.5048 79.9342H32.4522C31.2756 79.9342 30.3206 78.9792 30.3206 77.8026C30.3206 76.6259 31.2756 75.6709 32.4522 75.6709H49.5048C50.6816 75.6711 51.6366 76.626 51.6366 77.8026ZM49.5048 81H32.4522C31.0496 81 29.9636 82.3548 30.4305 83.8265C30.7118 84.7143 31.6102 85.2632 32.5419 85.2632H32.5738C33.8048 85.2632 34.9303 85.9591 35.4812 87.0601L35.5037 87.1049C36.2466 88.5884 37.7631 89.5263 39.4226 89.5263H42.5347C44.1942 89.5263 45.7108 88.5884 46.4526 87.1049L46.475 87.0601C47.0261 85.9592 48.1514 85.2632 49.3824 85.2632H49.4144C50.3459 85.2632 51.2444 84.7143 51.5258 83.8265C51.9935 82.3547 50.9074 81 49.5048 81ZM40.9787 12.7895C42.1553 12.7895 43.1102 11.8345 43.1102 10.6579V2.13158C43.1102 0.954979 42.1553 0 40.9787 0C39.8019 0 38.8469 0.954979 38.8469 2.13158V10.6579C38.8469 11.8345 39.8019 12.7895 40.9787 12.7895ZM18.37 20.9055C18.7856 21.3222 19.3314 21.53 19.877 21.53C20.4227 21.53 20.9683 21.3222 21.384 20.9055C22.2164 20.073 22.2164 18.7237 21.384 17.8915L15.3549 11.8622C14.5236 11.0298 13.1721 11.0298 12.3409 11.8622C11.5085 12.6946 11.5085 14.0438 12.3409 14.8762L18.37 20.9055ZM13.268 40.5C13.268 39.3234 12.313 38.3684 11.1364 38.3684H2.61009C1.43349 38.3684 0.478516 39.3234 0.478516 40.5C0.478516 41.6766 1.43349 42.6316 2.61009 42.6316H11.1364C12.3132 42.6316 13.268 41.6766 13.268 40.5ZM18.37 60.0945L12.3409 66.1238C11.5085 66.9562 11.5085 68.3055 12.3409 69.1378C12.7566 69.5545 13.3022 69.7622 13.8479 69.7622C14.3935 69.7622 14.9392 69.5545 15.3549 69.1378L21.384 63.1085C22.2164 62.2761 22.2164 60.927 21.384 60.0945C20.5527 59.2621 19.2013 59.2621 18.37 60.0945ZM63.5872 60.0945C62.7548 59.2621 61.4055 59.2621 60.5732 60.0945C59.741 60.927 59.7408 62.2763 60.5732 63.1085L66.6024 69.1378C67.019 69.5545 67.5639 69.7622 68.1094 69.7622C68.655 69.7622 69.1997 69.5545 69.6164 69.1378C70.4488 68.3054 70.4488 66.956 69.6164 66.1238L63.5872 60.0945ZM79.3469 38.3684H70.8206C69.644 38.3684 68.689 39.3234 68.689 40.5C68.689 41.6766 69.644 42.6316 70.8206 42.6316H79.3469C80.5235 42.6316 81.4785 41.6766 81.4785 40.5C81.4785 39.3234 80.5235 38.3684 79.3469 38.3684ZM62.0801 21.53C62.6256 21.53 63.1703 21.3222 63.587 20.9055L69.6163 14.8762C70.4487 14.0438 70.4487 12.6946 69.6163 11.8622C68.7839 11.0298 67.4345 11.0298 66.6023 11.8622L60.5731 17.8915C59.7406 18.7239 59.7406 20.073 60.5731 20.9055C60.9889 21.3222 61.5345 21.53 62.0801 21.53ZM51.6366 72.4737C51.6366 73.6503 50.6816 74.6053 49.5048 74.6053H32.4522C31.2756 74.6053 30.3206 73.6503 30.3206 72.4737C30.3206 71.3386 31.2106 70.4189 32.3296 70.3548C31.0027 58.3604 18.5969 55.6886 18.5969 41.5658C18.5969 29.2048 28.6176 19.1842 40.9785 19.1842C53.3395 19.1842 63.3601 29.2048 63.3601 41.5658C63.3601 55.6884 50.9543 58.3604 49.6274 70.355C50.7465 70.4189 51.6366 71.3386 51.6366 72.4737ZM36.0663 25.1633C35.7348 24.3458 34.8045 23.9525 33.9838 24.2818C28.5365 26.4891 24.4067 31.2073 22.9369 36.9028C22.7162 37.7586 23.2311 38.6294 24.0859 38.8501C24.2191 38.8852 24.3535 38.9012 24.4856 38.9012C25.1975 38.9012 25.8467 38.4227 26.0332 37.7021C27.2504 32.9829 30.6715 29.0735 35.1841 27.2457C36.0024 26.9145 36.3967 25.9829 36.0663 25.1633Z" fill="#780116"/>
</svg>
